#Comment line ignore any data following # character 
#Hierarchical Translation and Rotation (.htr) file 
[Header]	
#Header keywords are followed by a single value 
FileType HTR		#Single word string
DataType HTRS		#Translation followed by rotation and scale data
FileVersion 1		#integer
NumSegments 84		#integer
NumFrames 2		#integer
DataFrameRate 30		#integer, data frame rate in this file
EulerRotationOrder ZYX
CalibrationUnits mm
RotationUnits Degrees
GlobalAxisofGravity Y
BoneLengthAxis Y
ScaleFactor 1.00
[SegmentNames&Hierarchy]
#CHILD	PARENT
MASTER GLOBAL
root MASTER
chest root
L_mid_tent01 root
R_mid_tent01 root
spine01 root
Bip01_Neck chest
L_humerus chest
R_humerus chest
weapon_bone chest
Bip01_Head Bip01_Neck
eye_left_bone Bip01_Head
eye_right_bone Bip01_Head
L_forearm L_humerus
L_front_hand L_forearm
L_weapon_bone L_forearm
L_front_hand01_01 L_front_hand
L_front_hand02_01 L_front_hand
L_front_hand03_01 L_front_hand
L_front_hand01_02 L_front_hand01_01
L_front_hand02_02 L_front_hand02_01
L_front_hand03_02 L_front_hand03_01
R_forearm R_humerus
R_front_hand R_forearm
R_weapon_bone R_forearm
R_front_hand01_01 R_front_hand
R_front_hand02_01 R_front_hand
R_front_hand03_01 R_front_hand
R_front_hand01_02 R_front_hand01_01
R_front_hand02_02 R_front_hand02_01
R_front_hand03_02 R_front_hand03_01
null_rope01_connect L_mid_tent01
Rope1_Seg01 null_rope01_connect
Rope1_Seg02 Rope1_Seg01
Rope1_Seg03 Rope1_Seg02
Rope1_Seg04 Rope1_Seg03
Rope1_Seg05 Rope1_Seg04
Rope1_Seg06 Rope1_Seg05
Rope1_Seg07 Rope1_Seg06
Rope1_Seg09 Rope1_Seg07
L_mid_hand01 Rope1_Seg09
L_mid_hand02 Rope1_Seg09
L_mid_hand03 Rope1_Seg09
null_rope02_connect R_mid_tent01
Rope2_Seg01 null_rope02_connect
Rope2_Seg02 Rope2_Seg01
Rope2_Seg03 Rope2_Seg02
Rope2_Seg04 Rope2_Seg03
Rope2_Seg05 Rope2_Seg04
Rope2_Seg06 Rope2_Seg05
Rope2_Seg07 Rope2_Seg06
Rope2_Seg09 Rope2_Seg07
R_mid_hand01 Rope2_Seg09
R_mid_hand02 Rope2_Seg09
R_mid_hand03 Rope2_Seg09
spine02 spine01
spine03 spine02
pelvis spine03
null_rope03_connect pelvis
null_rope04_connect pelvis
Rope3_Seg01 null_rope03_connect
Rope3_Seg02 Rope3_Seg01
Rope3_Seg03 Rope3_Seg02
Rope3_Seg04 Rope3_Seg03
Rope3_Seg05 Rope3_Seg04
Rope3_Seg06 Rope3_Seg05
Rope3_Seg07 Rope3_Seg06
Rope3_Seg08 Rope3_Seg07
Rope3_Seg09 Rope3_Seg08
R_rear_hand01 Rope3_Seg09
R_rear_hand02 Rope3_Seg09
R_rear_hand03 Rope3_Seg09
Rope4_Seg01 null_rope04_connect
Rope4_Seg02 Rope4_Seg01
Rope4_Seg03 Rope4_Seg02
Rope4_Seg04 Rope4_Seg03
Rope4_Seg05 Rope4_Seg04
Rope4_Seg06 Rope4_Seg05
Rope4_Seg07 Rope4_Seg06
Rope4_Seg08 Rope4_Seg07
Rope4_Seg09 Rope4_Seg08
L_rear_hand01 Rope4_Seg09
L_rear_hand02 Rope4_Seg09
L_rear_hand03 Rope4_Seg09
[BasePosition]
#SegmentName Tx, Ty, Tz, Rx, Ry, Rz, BoneLength
MASTER 0.000000 0.000000 0.000000 -90.000000 0.000000 0.000000 10.000000 
root 0.000000 0.000000 0.000000 0.000000 0.000000 0.000000 10.000000 
chest 0.000000 0.000000 0.000000 0.000000 0.000000 0.000000 10.000000 
L_mid_tent01 0.000000 0.000000 0.000000 0.000000 0.000000 0.000000 10.000000 
R_mid_tent01 0.000000 0.000000 0.000000 0.000000 0.000000 0.000000 10.000000 
spine01 0.000000 0.000000 0.000000 0.000000 0.000000 0.000000 10.000000 
Bip01_Neck 0.000000 0.000000 0.000000 0.000000 0.000000 0.000000 10.000000 
L_humerus 0.000000 0.000000 0.000000 0.000000 0.000000 0.000000 10.000000 
R_humerus 0.000000 0.000000 0.000000 0.000000 0.000000 0.000000 10.000000 
weapon_bone 0.000000 0.000000 0.000000 0.000000 0.000000 0.000000 10.000000 
Bip01_Head 0.000000 0.000000 0.000000 0.000000 0.000000 0.000000 10.000000 
eye_left_bone 0.000000 0.000000 0.000000 0.000000 0.000000 0.000000 10.000000 
eye_right_bone 0.000000 0.000000 0.000000 0.000000 0.000000 0.000000 10.000000 
L_forearm 0.000000 0.000000 0.000000 0.000000 0.000000 0.000000 10.000000 
L_front_hand 0.000000 0.000000 0.000000 0.000000 0.000000 0.000000 10.000000 
L_weapon_bone 0.000000 0.000000 0.000000 0.000000 0.000000 0.000000 10.000000 
L_front_hand01_01 0.000000 0.000000 0.000000 0.000000 0.000000 0.000000 10.000000 
L_front_hand02_01 0.000000 0.000000 0.000000 0.000000 0.000000 0.000000 10.000000 
L_front_hand03_01 0.000000 0.000000 0.000000 0.000000 0.000000 0.000000 10.000000 
L_front_hand01_02 0.000000 0.000000 0.000000 0.000000 0.000000 0.000000 10.000000 
L_front_hand02_02 0.000000 0.000000 0.000000 0.000000 0.000000 0.000000 10.000000 
L_front_hand03_02 0.000000 0.000000 0.000000 0.000000 0.000000 0.000000 10.000000 
R_forearm 0.000000 0.000000 0.000000 0.000000 0.000000 0.000000 10.000000 
R_front_hand 0.000000 0.000000 0.000000 0.000000 0.000000 0.000000 10.000000 
R_weapon_bone 0.000000 0.000000 0.000000 0.000000 0.000000 0.000000 10.000000 
R_front_hand01_01 0.000000 0.000000 0.000000 0.000000 0.000000 0.000000 10.000000 
R_front_hand02_01 0.000000 0.000000 0.000000 0.000000 0.000000 0.000000 10.000000 
R_front_hand03_01 0.000000 0.000000 0.000000 0.000000 0.000000 0.000000 10.000000 
R_front_hand01_02 0.000000 0.000000 0.000000 0.000000 0.000000 0.000000 10.000000 
R_front_hand02_02 0.000000 0.000000 0.000000 0.000000 0.000000 0.000000 10.000000 
R_front_hand03_02 0.000000 0.000000 0.000000 0.000000 0.000000 0.000000 10.000000 
null_rope01_connect 0.000000 0.000000 0.000000 0.000000 0.000000 0.000000 10.000000 
Rope1_Seg01 0.000000 0.000000 0.000000 0.000000 0.000000 0.000000 10.000000 
Rope1_Seg02 0.000000 0.000000 0.000000 0.000000 0.000000 0.000000 10.000000 
Rope1_Seg03 0.000000 0.000000 0.000000 0.000000 0.000000 0.000000 10.000000 
Rope1_Seg04 0.000000 0.000000 0.000000 0.000000 0.000000 0.000000 10.000000 
Rope1_Seg05 0.000000 0.000000 0.000000 0.000000 0.000000 0.000000 10.000000 
Rope1_Seg06 0.000000 0.000000 0.000000 0.000000 0.000000 0.000000 10.000000 
Rope1_Seg07 0.000000 0.000000 0.000000 0.000000 0.000000 0.000000 10.000000 
Rope1_Seg09 0.000000 0.000000 0.000000 0.000000 0.000000 0.000000 10.000000 
L_mid_hand01 0.000000 0.000000 0.000000 0.000000 0.000000 0.000000 10.000000 
L_mid_hand02 0.000000 0.000000 0.000000 0.000000 0.000000 0.000000 10.000000 
L_mid_hand03 0.000000 0.000000 0.000000 0.000000 0.000000 0.000000 10.000000 
null_rope02_connect 0.000000 0.000000 0.000000 0.000000 0.000000 0.000000 10.000000 
Rope2_Seg01 0.000000 0.000000 0.000000 0.000000 0.000000 0.000000 10.000000 
Rope2_Seg02 0.000000 0.000000 0.000000 0.000000 0.000000 0.000000 10.000000 
Rope2_Seg03 0.000000 0.000000 0.000000 0.000000 0.000000 0.000000 10.000000 
Rope2_Seg04 0.000000 0.000000 0.000000 0.000000 0.000000 0.000000 10.000000 
Rope2_Seg05 0.000000 0.000000 0.000000 0.000000 0.000000 0.000000 10.000000 
Rope2_Seg06 0.000000 0.000000 0.000000 0.000000 0.000000 0.000000 10.000000 
Rope2_Seg07 0.000000 0.000000 0.000000 0.000000 0.000000 0.000000 10.000000 
Rope2_Seg09 0.000000 0.000000 0.000000 0.000000 0.000000 0.000000 10.000000 
R_mid_hand01 0.000000 0.000000 0.000000 0.000000 0.000000 0.000000 10.000000 
R_mid_hand02 0.000000 0.000000 0.000000 0.000000 0.000000 0.000000 10.000000 
R_mid_hand03 0.000000 0.000000 0.000000 0.000000 0.000000 0.000000 10.000000 
spine02 0.000000 0.000000 0.000000 0.000000 0.000000 0.000000 10.000000 
spine03 0.000000 0.000000 0.000000 0.000000 0.000000 0.000000 10.000000 
pelvis 0.000000 0.000000 0.000000 0.000000 0.000000 0.000000 10.000000 
null_rope03_connect 0.000000 0.000000 0.000000 0.000000 0.000000 0.000000 10.000000 
null_rope04_connect 0.000000 0.000000 0.000000 0.000000 0.000000 0.000000 10.000000 
Rope3_Seg01 0.000000 0.000000 0.000000 0.000000 0.000000 0.000000 10.000000 
Rope3_Seg02 0.000000 0.000000 0.000000 0.000000 0.000000 0.000000 10.000000 
Rope3_Seg03 0.000000 0.000000 0.000000 0.000000 0.000000 0.000000 10.000000 
Rope3_Seg04 0.000000 0.000000 0.000000 0.000000 0.000000 0.000000 10.000000 
Rope3_Seg05 0.000000 0.000000 0.000000 0.000000 0.000000 0.000000 10.000000 
Rope3_Seg06 0.000000 0.000000 0.000000 0.000000 0.000000 0.000000 10.000000 
Rope3_Seg07 0.000000 0.000000 0.000000 0.000000 0.000000 0.000000 10.000000 
Rope3_Seg08 0.000000 0.000000 0.000000 0.000000 0.000000 0.000000 10.000000 
Rope3_Seg09 0.000000 0.000000 0.000000 0.000000 0.000000 0.000000 10.000000 
R_rear_hand01 0.000000 0.000000 0.000000 0.000000 0.000000 0.000000 10.000000 
R_rear_hand02 0.000000 0.000000 0.000000 0.000000 0.000000 0.000000 10.000000 
R_rear_hand03 0.000000 0.000000 0.000000 0.000000 0.000000 0.000000 10.000000 
Rope4_Seg01 0.000000 0.000000 0.000000 0.000000 0.000000 0.000000 10.000000 
Rope4_Seg02 0.000000 0.000000 0.000000 0.000000 0.000000 0.000000 10.000000 
Rope4_Seg03 0.000000 0.000000 0.000000 0.000000 0.000000 0.000000 10.000000 
Rope4_Seg04 0.000000 0.000000 0.000000 0.000000 0.000000 0.000000 10.000000 
Rope4_Seg05 0.000000 0.000000 0.000000 0.000000 0.000000 0.000000 10.000000 
Rope4_Seg06 0.000000 0.000000 0.000000 0.000000 0.000000 0.000000 10.000000 
Rope4_Seg07 0.000000 0.000000 0.000000 0.000000 0.000000 0.000000 10.000000 
Rope4_Seg08 0.000000 0.000000 0.000000 0.000000 0.000000 0.000000 10.000000 
Rope4_Seg09 0.000000 0.000000 0.000000 0.000000 0.000000 0.000000 10.000000 
L_rear_hand01 0.000000 0.000000 0.000000 0.000000 0.000000 0.000000 10.000000 
L_rear_hand02 0.000000 0.000000 0.000000 0.000000 0.000000 0.000000 10.000000 
L_rear_hand03 0.000000 0.000000 0.000000 0.000000 0.000000 0.000000 10.000000 
#Beginning of Data. Separated by tabs
#Fr	Tx	Ty	Tz	Rx	Ry	Rz	SF
[MASTER]
7 0.000000 0.000000 0.000000 0.001660 0.001660 0.001660 0.000000
8 0.000000 0.000000 0.000000 0.001660 0.001660 0.001660 0.000000
[root]
7 -97.659126 -62.822132 1185.089600 -91.973045 -8.728242 -91.290100 1190.764893
8 -96.911018 -62.771812 1218.414063 -91.963478 -9.672296 -90.965576 1223.872925
[chest]
7 -84.512650 -34.090519 0.000000 -4.096656 -0.561248 -175.987015 91.129311
8 -84.512650 -34.090519 0.000000 -4.142006 -0.581189 -175.208450 91.129311
[L_mid_tent01]
7 27.551262 22.033234 -251.535721 -4.465335 22.615028 56.797424 253.997559
8 27.549934 22.033997 -251.527222 -1.989671 24.305782 60.929237 253.989044
[R_mid_tent01]
7 23.228794 24.509907 226.238495 -172.321564 -22.931009 40.641727 228.744751
8 23.228794 24.509907 226.238495 -174.846909 -24.937187 45.859280 228.744751
[spine01]
7 -0.361383 -0.195265 0.000000 -0.209888 0.379826 11.096717 0.410763
8 -0.361383 -0.195265 0.000000 -0.159188 0.385102 11.250921 0.410763
[Bip01_Neck]
7 165.484543 71.581718 0.000119 175.896118 1.177290 24.871183 180.302734
8 165.484543 71.581718 0.000119 175.896118 1.177290 24.871180 180.302734
[L_humerus]
7 -13.983130 -135.272980 -120.471481 -84.945885 6.155074 -166.175507 181.680161
8 -13.983130 -135.272980 -120.471481 -85.126747 6.272233 -168.504166 181.680161
[R_humerus]
7 -13.983309 -135.273102 125.287651 97.613243 -4.375528 -169.753052 184.909012
8 -13.983309 -135.273102 125.287651 97.469246 -4.069443 -171.309692 184.909012
[weapon_bone]
7 235.964890 -300.705902 0.000000 0.000000 -89.951546 -128.212341 382.234833
8 235.964890 -300.705902 0.000000 0.000000 -89.951546 -128.212341 382.234833
[Bip01_Head]
7 235.545944 166.889877 4.339333 2.333895 2.638522 -45.514938 288.709106
8 239.954147 161.127518 7.359106 2.541093 2.593804 -42.353214 289.126648
[eye_left_bone]
7 -24.626970 125.451866 -64.772606 0.000000 -90.000000 -99.840431 143.318359
8 -24.626970 125.451866 -64.772606 0.000000 -90.000000 -99.840431 143.318359
[eye_right_bone]
7 -24.626970 125.451866 64.327362 0.000000 -89.960434 80.159386 143.117676
8 -24.626970 125.451866 64.327362 0.000000 -89.960434 80.159386 143.117676
[L_forearm]
7 322.776093 0.000000 -0.000119 0.000162 0.002342 -82.103416 322.776093
8 322.776093 0.000000 -0.000119 0.000120 0.002344 -84.152542 322.776093
[L_front_hand]
7 241.149185 -0.042021 -3.300071 -177.766602 -0.406290 -71.089439 241.171753
8 241.149185 -0.042021 -3.300071 -177.755737 -0.315506 -73.408623 241.171753
[L_weapon_bone]
7 156.183838 0.000000 0.000000 0.001660 0.001660 0.001660 156.183838
8 156.183838 0.000000 0.000000 0.001660 0.001660 0.001660 156.183838
[L_front_hand01_01]
7 86.095154 20.947098 -0.655860 0.378054 -0.463733 -1.228752 88.609184
8 86.095154 20.947098 -0.655860 0.379798 -0.462120 -1.440993 88.609184
[L_front_hand02_01]
7 86.935165 -11.437475 24.513514 116.902626 0.604768 -0.039602 91.046425
8 86.935165 -11.437475 24.513514 116.903801 0.794221 0.056719 91.046425
[L_front_hand03_01]
7 86.637497 -14.123976 -20.424902 -118.333862 -1.676697 -1.765076 90.126129
8 86.637497 -14.123976 -20.424902 -118.336746 -1.864398 -1.663929 90.126129
[L_front_hand01_02]
7 71.020905 -0.000179 0.000030 0.001534 0.001777 -8.378851 71.020905
8 71.020905 -0.000179 0.000030 0.001534 0.001777 -8.378850 71.020905
[L_front_hand02_02]
7 71.020927 -0.000119 0.000060 0.001534 0.001777 -8.378851 71.020927
8 71.020927 -0.000119 0.000060 0.001534 0.001777 -8.378850 71.020927
[L_front_hand03_02]
7 71.020905 -0.000060 0.000060 0.001534 0.001777 -8.378851 71.020905
8 71.020905 -0.000060 0.000060 0.001534 0.001777 -8.378850 71.020905
[R_forearm]
7 322.776428 -0.000060 0.000030 0.212958 -0.014944 -86.343964 322.776428
8 322.776428 -0.000060 0.000030 0.209210 -0.019882 -85.492447 322.776428
[R_front_hand]
7 238.847015 -0.006795 2.210259 -1.650328 -0.513624 -96.067970 238.857239
8 238.847015 -0.006795 2.210259 -1.658886 -0.485513 -95.076080 238.857239
[R_weapon_bone]
7 155.664093 0.002503 -0.000030 0.003487 0.001180 -90.988930 155.664078
8 155.664093 0.002503 -0.000030 0.003487 0.001180 -90.988930 155.664078
[R_front_hand01_01]
7 87.624611 14.231146 22.918642 -116.910011 1.145162 -0.126545 91.683487
8 87.624611 14.231146 22.918642 -116.911720 1.292982 -0.201491 91.683487
[R_front_hand02_01]
7 89.356956 14.367283 -19.491137 118.353752 -1.933625 1.865246 92.579636
8 89.356956 14.367283 -19.491137 118.356346 -2.078840 1.786899 92.579636
[R_front_hand03_01]
7 87.286232 -22.307278 -0.143439 -0.380434 -0.249811 1.593764 90.091743
8 87.286232 -22.307278 -0.143439 -0.381229 -0.248355 1.759238 90.091743
[R_front_hand01_02]
7 71.020905 0.000060 0.000119 0.001777 0.001534 8.377220 71.020905
8 71.020905 0.000060 0.000119 0.001777 0.001534 8.377220 71.020905
[R_front_hand02_02]
7 71.020844 -0.000030 -0.000119 0.001777 0.001534 8.377220 71.020836
8 71.020844 -0.000030 -0.000119 0.001777 0.001534 8.377220 71.020836
[R_front_hand03_02]
7 71.020905 0.000000 0.000030 0.001777 0.001534 8.377220 71.020905
8 71.020905 0.000000 0.000030 0.001777 0.001534 8.377220 71.020905
[null_rope01_connect]
7 328.732483 0.000000 -0.000238 -148.756638 -64.486046 -170.311371 328.732483
8 328.732483 0.000000 -0.000238 -146.105820 -63.290581 -175.590668 328.732483
[Rope1_Seg01]
7 0.000127 0.000000 0.000000 112.108902 16.582560 140.270493 0.000127
8 0.000123 0.000000 0.000000 109.030327 14.055959 129.744812 0.000123
[Rope1_Seg02]
7 139.999863 -0.000179 0.000000 0.820679 -1.072984 -14.930770 139.999863
8 139.999863 -0.000179 0.000000 -1.143921 -4.370938 -15.704132 139.999863
[Rope1_Seg03]
7 139.999924 0.000060 -0.000060 7.762238 -1.637262 -28.702904 139.999924
8 139.999924 0.000060 -0.000060 3.718554 -5.446627 -28.098318 139.999924
[Rope1_Seg04]
7 139.999924 -0.000060 -0.000119 21.472311 -4.727490 -30.748915 139.999924
8 139.999924 -0.000060 -0.000119 12.117513 -7.648415 -28.304237 139.999924
[Rope1_Seg05]
7 139.999832 0.000119 -0.000060 21.244534 -14.600766 -15.170231 139.999832
8 139.999832 0.000119 -0.000060 7.961144 -10.763893 -8.897857 139.999832
[Rope1_Seg06]
7 139.999954 0.000119 -0.000060 10.437306 -13.404727 -4.763886 139.999954
8 139.999954 0.000119 -0.000060 3.355759 -5.828826 -3.493962 139.999954
[Rope1_Seg07]
7 139.999985 0.000060 0.000000 4.336989 -7.201483 -1.932708 139.999985
8 139.999985 0.000060 0.000000 1.877876 -3.291311 -2.259408 139.999985
[Rope1_Seg09]
7 121.602913 0.000119 -0.000089 -75.585030 -1.360122 0.850319 121.602913
8 121.602913 0.000119 -0.000089 -73.675797 -1.359275 0.847330 121.602913
[L_mid_hand01]
7 103.859421 1.038730 8.195221 104.632690 -11.015920 -3.389234 104.187431
8 103.859421 1.038730 8.195221 104.517693 -8.563836 -2.741374 104.187431
[L_mid_hand02]
7 105.572853 -4.139662 -10.864139 -136.797119 12.033274 -11.924650 106.211075
8 105.572853 -4.139662 -10.864139 -136.434036 10.297203 -10.045045 106.211075
[L_mid_hand03]
7 104.641464 17.579376 -3.913581 -18.460627 3.427796 14.056114 106.179977
8 104.641464 17.579376 -3.913581 -18.587114 2.625546 11.655019 106.179977
[null_rope02_connect]
7 328.732849 0.000179 -0.000119 -141.058105 68.395470 -17.565115 328.732849
8 328.732849 0.000179 -0.000119 -137.530746 66.873650 -10.113734 328.732849
[Rope2_Seg01]
7 0.000095 0.000153 0.000013 -19.572083 42.778942 92.744034 0.000180
8 0.000095 0.000153 0.000015 -32.671345 35.229229 77.250534 0.000181
[Rope2_Seg02]
7 139.999741 -0.000060 -0.000119 1.302152 11.609406 1.446551 139.999756
8 139.999741 -0.000060 -0.000119 0.844924 11.226376 1.550798 139.999756
[Rope2_Seg03]
7 140.000107 0.000030 0.000000 -0.152709 16.503487 0.279380 140.000107
8 140.000107 0.000030 0.000000 -0.772710 16.320526 -1.358249 140.000107
[Rope2_Seg04]
7 139.999802 0.000000 -0.000060 -2.013352 18.074837 -3.815130 139.999802
8 139.999802 0.000000 -0.000060 -2.344027 13.149952 1.897675 139.999802
[Rope2_Seg05]
7 139.999985 -0.000060 0.000119 -10.786376 16.126888 16.915340 139.999985
8 139.999985 -0.000060 0.000119 -8.347005 -3.210482 30.638863 139.999985
[Rope2_Seg06]
7 139.999893 -0.000030 -0.000119 -14.796589 9.354406 30.947847 139.999893
8 139.999893 -0.000030 -0.000119 -0.580077 -5.999082 32.549244 139.999893
[Rope2_Seg07]
7 139.999893 0.000060 -0.000060 -5.350991 1.907287 14.634997 139.999893
8 139.999893 0.000060 -0.000060 3.129662 -1.814835 13.880757 139.999893
[Rope2_Seg09]
7 121.338966 0.000089 -0.000060 19.390423 -1.526949 -0.479988 121.338966
8 121.338966 0.000089 -0.000060 19.089382 -1.528204 -0.475975 121.338966
[R_mid_hand01]
7 104.680779 11.144459 -10.335981 -46.903954 8.235363 10.364157 105.778534
8 104.680779 11.144459 -10.335981 -47.146198 6.171525 8.426085 105.778534
[R_mid_hand02]
7 104.070427 2.443552 8.231699 75.444702 -9.213304 2.918096 104.424065
8 104.070427 2.443552 8.231699 75.541718 -6.479952 2.202196 104.424065
[R_mid_hand03]
7 106.028137 -11.221827 -5.996406 -164.800705 4.408121 -13.083571 106.788818
8 106.028137 -11.221827 -5.996406 -164.608734 3.661256 -10.354726 106.788818
[spine02]
7 129.756927 0.001550 0.000119 -0.079781 -4.254772 -6.741598 129.756927
8 129.756927 0.001550 0.000119 -0.087784 -4.279670 -6.620691 129.756927
[spine03]
7 79.017487 0.017128 -0.957725 2.014439 -1.768302 20.903969 79.023300
8 79.001144 0.019970 -1.117348 2.004883 -1.468158 19.807829 79.009048
[pelvis]
7 169.435242 0.051022 0.000000 0.007858 2.614948 -3.847635 169.435257
8 169.435242 0.051022 0.000000 0.009059 2.496111 -3.748532 169.435257
[null_rope03_connect]
7 -1.257226 -2.466202 137.391083 130.068420 -88.897835 -52.938148 137.418976
8 -1.257226 -2.466202 137.391083 125.024445 -88.740417 -46.213116 137.418976
[null_rope04_connect]
7 -1.259640 -2.480268 -137.844437 130.068420 -88.897835 -52.938148 137.872513
8 -1.259640 -2.480268 -137.844437 125.024445 -88.740417 -46.213116 137.872513
[Rope3_Seg01]
7 0.000010 0.000032 -0.000127 -106.253365 25.076941 -30.036858 0.000131
8 0.000010 0.000031 -0.000123 -92.245590 31.790737 -17.722992 0.000127
[Rope3_Seg02]
7 139.999924 -0.000119 0.000060 -4.390888 15.905291 4.156794 139.999924
8 139.999924 -0.000119 0.000060 -8.178284 18.963024 -0.089654 139.999924
[Rope3_Seg03]
7 139.999924 -0.000119 0.000119 0.208683 3.265213 5.001422 139.999924
8 139.999924 -0.000119 0.000119 -0.155706 2.895274 2.976311 139.999924
[Rope3_Seg04]
7 139.999924 0.000119 0.000000 -1.841117 14.002022 0.129390 139.999924
8 139.999924 0.000119 0.000000 -3.328748 14.501404 -0.741164 139.999924
[Rope3_Seg05]
7 139.999924 -0.000238 0.000060 -0.407671 19.388063 -2.190421 139.999924
8 139.999924 -0.000238 0.000060 -2.005675 25.608112 -2.046997 139.999924
[Rope3_Seg06]
7 139.999893 -0.000119 -0.000060 1.204276 8.980785 -0.732279 139.999893
8 139.999893 -0.000119 -0.000060 1.475035 13.194197 -0.519821 139.999893
[Rope3_Seg07]
7 139.999771 0.000060 -0.000119 1.243954 5.166952 -0.447210 139.999771
8 139.999771 0.000060 -0.000119 1.609159 6.851631 -0.377686 139.999771
[Rope3_Seg08]
7 139.999985 -0.000060 0.000000 1.076356 3.051819 -0.330848 139.999985
8 139.999985 -0.000060 0.000000 1.336705 3.883879 -0.324180 139.999985
[Rope3_Seg09]
7 90.185997 -0.000179 -0.000060 80.724777 -1.360084 -0.848754 90.185997
8 90.185997 -0.000179 -0.000060 78.324898 -1.359533 -0.850050 90.185997
[R_rear_hand01]
7 103.366196 -6.073594 -10.757982 -157.459961 10.291127 -12.699706 104.101845
8 103.366196 -6.073594 -10.757982 -157.095474 9.406157 -10.546644 104.101845
[R_rear_hand02]
7 100.509819 12.039542 -7.992327 -37.930683 8.590242 13.869079 101.543350
8 100.509819 12.039542 -7.992327 -38.184639 7.167293 12.031661 101.543350
[R_rear_hand03]
7 101.539970 5.215704 5.435467 84.166725 -12.980174 5.178656 101.819031
8 101.539970 5.215704 5.435467 84.209877 -10.691319 4.938234 101.819031
[Rope4_Seg01]
7 -0.000005 0.000045 -0.000089 7.564283 23.159447 -166.737900 0.000100
8 -0.000006 0.000039 -0.000091 -5.967788 25.154911 -177.137360 0.000099
[Rope4_Seg02]
7 139.999985 0.000060 0.000119 12.793581 5.909268 23.768679 139.999985
8 139.999985 0.000060 0.000119 13.700444 4.439296 22.442652 139.999985
[Rope4_Seg03]
7 139.999924 0.000000 -0.000238 5.716685 10.011515 21.178860 139.999924
8 139.999924 0.000000 -0.000238 7.903145 9.327416 24.504948 139.999924
[Rope4_Seg04]
7 139.999985 0.000000 0.000119 0.922181 7.867654 13.970349 139.999985
8 139.999985 0.000000 0.000119 1.577602 8.884649 16.115984 139.999985
[Rope4_Seg05]
7 139.999802 -0.000060 -0.000119 -1.286394 7.920334 14.303345 139.999802
8 139.999802 -0.000060 -0.000119 -0.167402 12.928143 14.194564 139.999802
[Rope4_Seg06]
7 139.999924 0.000000 0.000060 -3.012558 5.572794 11.022440 139.999924
8 139.999924 0.000000 0.000060 -2.243340 10.230726 11.057906 139.999924
[Rope4_Seg07]
7 139.999802 0.000000 0.000000 -2.757214 2.823937 6.484281 139.999802
8 139.999802 0.000000 0.000000 -2.983511 4.945681 6.541905 139.999802
[Rope4_Seg08]
7 139.999924 0.000000 0.000119 -3.615911 1.471836 3.909885 139.999924
8 139.999924 0.000000 0.000119 -3.959590 2.611839 3.881994 139.999924
[Rope4_Seg09]
7 90.185791 0.000060 0.000060 -127.681717 2.226869 0.847750 90.185791
8 90.185791 0.000060 0.000060 -125.494400 2.230670 0.850525 90.185791
[L_rear_hand01]
7 101.696655 -8.392275 -7.654577 -38.175121 -7.203362 167.922226 102.329041
8 101.696655 -8.392275 -7.654577 -38.402672 -5.604514 169.955597 102.329041
[L_rear_hand02]
7 102.726799 -1.568258 5.773216 84.211899 10.757222 175.053726 102.900848
8 102.726799 -1.568258 5.773216 84.253380 8.183050 175.316528 102.900848
[L_rear_hand03]
7 104.552910 9.721220 -10.420293 -157.100372 -9.426753 -169.401047 105.519653
8 104.552910 9.721220 -10.420293 -156.728683 -8.416097 -171.797668 105.519653
